<svg width="11" height="36" viewBox="0 0 11 36" fill="none" xmlns="http://www.w3.org/2000/svg">
<mask id="mask0_1_60" style="mask-type:alpha" maskUnits="userSpaceOnUse" x="0" y="0" width="11" height="36">
<rect width="11" height="36" fill="#D9D9D9"/>
</mask>
<g mask="url(#mask0_1_60)">
<mask id="path-2-inside-1_1_60" fill="white">
<path fill-rule="evenodd" clip-rule="evenodd" d="M-173 0C-175.209 0 -177 1.79086 -177 4V32C-177 34.2091 -175.209 36 -173 36H1C3.20914 36 5 34.2091 5 32V32C5 31.7636 5.04544 31.5294 5.13384 31.3101L10.3492 18.3739C10.446 18.134 10.446 17.866 10.3492 17.6261L5.13384 4.68993C5.04544 4.47065 5 4.23643 5 4V4C5 1.79086 3.20914 0 1 0H-173Z"/>
</mask>
<path fill-rule="evenodd" clip-rule="evenodd" d="M-173 0C-175.209 0 -177 1.79086 -177 4V32C-177 34.2091 -175.209 36 -173 36H1C3.20914 36 5 34.2091 5 32V32C5 31.7636 5.04544 31.5294 5.13384 31.3101L10.3492 18.3739C10.446 18.134 10.446 17.866 10.3492 17.6261L5.13384 4.68993C5.04544 4.47065 5 4.23643 5 4V4C5 1.79086 3.20914 0 1 0H-173Z" fill="white"/>
<path d="M10.3492 18.3739L9.42179 18L9.42178 18L10.3492 18.3739ZM10.3492 17.6261L9.42178 18L9.42179 18L10.3492 17.6261ZM5.13384 4.68993L4.20638 5.06385L5.13384 4.68993ZM5.13384 31.3101L4.20638 30.9362L5.13384 31.3101ZM-176 4C-176 2.34315 -174.657 1 -173 1V-1C-175.761 -1 -178 1.23858 -178 4H-176ZM-176 32V4H-178V32H-176ZM-173 35C-174.657 35 -176 33.6569 -176 32H-178C-178 34.7614 -175.761 37 -173 37V35ZM1 35H-173V37H1V35ZM4 32C4 33.6569 2.65685 35 1 35V37C3.76142 37 6 34.7614 6 32H4ZM6.0613 31.684L11.2767 18.7479L9.42178 18L4.20638 30.9362L6.0613 31.684ZM11.2767 18.7479C11.4702 18.2681 11.4702 17.732 11.2767 17.2522L9.42179 18V18L11.2767 18.7479ZM11.2767 17.2522L6.06131 4.31601L4.20638 5.06385L9.42178 18L11.2767 17.2522ZM1 1C2.65685 1 4 2.34315 4 4H6C6 1.23858 3.76142 -1 1 -1V1ZM-173 1H1V-1H-173V1ZM6.06131 4.31601C6.02081 4.21558 6 4.10829 6 4H4C4 4.36456 4.07006 4.72573 4.20638 5.06385L6.06131 4.31601ZM6 32C6 31.8917 6.02081 31.7844 6.0613 31.684L4.20638 30.9362C4.07006 31.2743 4 31.6354 4 32H6Z" fill="#DDDDDD" mask="url(#path-2-inside-1_1_60)"/>
</g>
</svg>
