<svg width="11" height="36" viewBox="0 0 11 36" fill="none" xmlns="http://www.w3.org/2000/svg">
<mask id="mask0_1_59" style="mask-type:alpha" maskUnits="userSpaceOnUse" x="0" y="0" width="11" height="36">
<rect width="11" height="36" fill="#D9D9D9"/>
</mask>
<g mask="url(#mask0_1_59)">
<mask id="path-2-inside-1_1_59" fill="white">
<path fill-rule="evenodd" clip-rule="evenodd" d="M-173 0C-175.209 0 -177 1.79086 -177 4V32C-177 34.2091 -175.209 36 -173 36H0.602921C1.76381 36 2.8092 35.5055 3.5399 34.7156C3.70195 34.6129 3.83934 34.4557 3.92694 34.2393L3.94087 34.2049C4.23012 33.7679 4.43584 33.2708 4.53529 32.7363L10.3481 18.3752C10.4455 18.1346 10.4455 17.8655 10.3481 17.6248L4.53529 3.26369C4.43584 2.72921 4.23012 2.23208 3.94086 1.79508L3.92694 1.7607C3.83934 1.54427 3.70198 1.38717 3.53993 1.28446C2.80923 0.49455 1.76382 0 0.602921 0H-173Z"/>
</mask>
<path fill-rule="evenodd" clip-rule="evenodd" d="M-173 0C-175.209 0 -177 1.79086 -177 4V32C-177 34.2091 -175.209 36 -173 36H0.602921C1.76381 36 2.8092 35.5055 3.5399 34.7156C3.70195 34.6129 3.83934 34.4557 3.92694 34.2393L3.94087 34.2049C4.23012 33.7679 4.43584 33.2708 4.53529 32.7363L10.3481 18.3752C10.4455 18.1346 10.4455 17.8655 10.3481 17.6248L4.53529 3.26369C4.43584 2.72921 4.23012 2.23208 3.94086 1.79508L3.92694 1.7607C3.83934 1.54427 3.70198 1.38717 3.53993 1.28446C2.80923 0.49455 1.76382 0 0.602921 0H-173Z" fill="#EEF9F7"/>
<path d="M3.5399 34.7156L3.00458 33.8709L2.8944 33.9407L2.80582 34.0365L3.5399 34.7156ZM3.92694 34.2393L3.00005 33.864L2.99999 33.8641L3.92694 34.2393ZM3.94087 34.2049L3.10699 33.653L3.05162 33.7366L3.01398 33.8296L3.94087 34.2049ZM4.53529 32.7363L3.60835 32.3611L3.57058 32.4544L3.55217 32.5534L4.53529 32.7363ZM10.3481 18.3752L9.42119 18L9.42118 18L10.3481 18.3752ZM10.3481 17.6248L9.42118 18L9.42119 18L10.3481 17.6248ZM4.53529 3.26369L3.55217 3.44663L3.57058 3.54558L3.60835 3.63888L4.53529 3.26369ZM3.94086 1.79508L3.01391 2.17027L3.05157 2.26332L3.10698 2.34703L3.94086 1.79508ZM3.92694 1.7607L4.85389 1.3855L4.85389 1.3855L3.92694 1.7607ZM3.53993 1.28446L2.80585 1.96352L2.89443 2.05928L3.00462 2.12912L3.53993 1.28446ZM-176 4C-176 2.34315 -174.657 1 -173 1V-1C-175.761 -1 -178 1.23858 -178 4H-176ZM-176 32V4H-178V32H-176ZM-173 35C-174.657 35 -176 33.6569 -176 32H-178C-178 34.7614 -175.761 37 -173 37V35ZM0.602921 35H-173V37H0.602921V35ZM2.80582 34.0365C2.25646 34.6304 1.4736 35 0.602921 35V37C2.05401 37 3.36195 36.3806 4.27398 35.3946L2.80582 34.0365ZM4.07522 35.5602C4.41793 35.343 4.68989 35.0197 4.85389 34.6145L2.99999 33.8641C2.99645 33.8729 2.9936 33.8781 2.99213 33.8806C2.99068 33.883 2.99022 33.8834 2.99111 33.8823C2.99199 33.8813 2.99369 33.8794 2.99624 33.8771C2.99877 33.8749 3.00161 33.8728 3.00458 33.8709L4.07522 35.5602ZM4.85384 34.6146L4.86777 34.5802L3.01398 33.8296L3.00005 33.864L4.85384 34.6146ZM3.55217 32.5534C3.47779 32.9531 3.32395 33.3252 3.10699 33.653L4.77476 34.7568C5.13628 34.2106 5.39389 33.5885 5.51842 32.9193L3.55217 32.5534ZM5.46224 33.1115L11.2751 18.7504L9.42118 18L3.60835 32.3611L5.46224 33.1115ZM11.2751 18.7504C11.4699 18.2691 11.4699 17.7309 11.2751 17.2496L9.42119 18V18L11.2751 18.7504ZM11.2751 17.2496L5.46224 2.88849L3.60835 3.63888L9.42118 18L11.2751 17.2496ZM3.10698 2.34703C3.32395 2.67482 3.47778 3.04688 3.55217 3.44663L5.51842 3.08075C5.39389 2.41154 5.13628 1.78935 4.77473 1.24312L3.10698 2.34703ZM4.8678 1.41988L4.85389 1.3855L2.99999 2.13589L3.01391 2.17027L4.8678 1.41988ZM4.85389 1.3855C4.68991 0.980395 4.41801 0.657047 4.07525 0.439813L3.00462 2.12912C3.00163 2.12722 2.99878 2.12509 2.99625 2.12286C2.99369 2.12061 2.99198 2.11874 2.99109 2.11767C2.9902 2.11659 2.99066 2.11696 2.99212 2.11942C2.99359 2.12189 2.99645 2.12713 3 2.13589L4.85389 1.3855ZM0.602921 1C1.47362 1 2.25648 1.36964 2.80585 1.96352L4.27402 0.605408C3.36198 -0.380537 2.05403 -1 0.602921 -1V1ZM-173 1H0.602921V-1H-173V1Z" fill="#97D8D4" mask="url(#path-2-inside-1_1_59)"/>
</g>
</svg>
