<svg width="20" height="21" viewBox="0 0 20 21" fill="none" xmlns="http://www.w3.org/2000/svg">
<path d="M10 12.1365C10.9037 12.1365 11.6364 11.4039 11.6364 10.5001C11.6364 9.59639 10.9037 8.86377 10 8.86377C9.09627 8.86377 8.36365 9.59639 8.36365 10.5001C8.36365 11.4039 9.09627 12.1365 10 12.1365Z" stroke="#4A4A4A" stroke-width="1.2" stroke-linecap="round" stroke-linejoin="round"/>
<path d="M14.0364 12.1364C13.9638 12.3009 13.9421 12.4834 13.9742 12.6603C14.0063 12.8373 14.0906 13.0005 14.2164 13.1291L14.2491 13.1618C14.3505 13.2631 14.431 13.3834 14.4859 13.5159C14.5408 13.6483 14.569 13.7903 14.569 13.9336C14.569 14.077 14.5408 14.219 14.4859 14.3514C14.431 14.4838 14.3505 14.6041 14.2491 14.7055C14.1478 14.8069 14.0275 14.8873 13.895 14.9422C13.7626 14.9971 13.6206 15.0254 13.4773 15.0254C13.3339 15.0254 13.192 14.9971 13.0595 14.9422C12.9271 14.8873 12.8068 14.8069 12.7055 14.7055L12.6727 14.6727C12.5442 14.547 12.3809 14.4626 12.204 14.4305C12.027 14.3985 11.8445 14.4201 11.68 14.4927C11.5187 14.5619 11.3811 14.6767 11.2842 14.823C11.1873 14.9694 11.1352 15.1408 11.1345 15.3164V15.4091C11.1345 15.6984 11.0196 15.9759 10.815 16.1805C10.6104 16.3851 10.333 16.5 10.0436 16.5C9.75431 16.5 9.47683 16.3851 9.27225 16.1805C9.06766 15.9759 8.95273 15.6984 8.95273 15.4091V15.36C8.9485 15.1795 8.89006 15.0044 8.78501 14.8575C8.67995 14.7106 8.53313 14.5987 8.36364 14.5364C8.19912 14.4638 8.01662 14.4421 7.83968 14.4742C7.66274 14.5063 7.49946 14.5906 7.37091 14.7164L7.33818 14.7491C7.23687 14.8505 7.11655 14.931 6.98412 14.9859C6.85168 15.0408 6.70973 15.069 6.56636 15.069C6.423 15.069 6.28104 15.0408 6.14861 14.9859C6.01618 14.931 5.89586 14.8505 5.79455 14.7491C5.69312 14.6478 5.61265 14.5275 5.55775 14.395C5.50285 14.2626 5.4746 14.1206 5.4746 13.9773C5.4746 13.8339 5.50285 13.692 5.55775 13.5595C5.61265 13.4271 5.69312 13.3068 5.79455 13.2055L5.82727 13.1727C5.95302 13.0442 6.03737 12.8809 6.06946 12.704C6.10154 12.527 6.07988 12.3445 6.00727 12.18C5.93813 12.0187 5.82332 11.8811 5.67698 11.7842C5.53064 11.6873 5.35916 11.6352 5.18364 11.6345H5.09091C4.80158 11.6345 4.52411 11.5196 4.31952 11.315C4.11493 11.1104 4 10.833 4 10.5436C4 10.2543 4.11493 9.97683 4.31952 9.77225C4.52411 9.56766 4.80158 9.45273 5.09091 9.45273H5.14C5.32054 9.4485 5.49564 9.39006 5.64253 9.28501C5.78941 9.17995 5.9013 9.03313 5.96364 8.86364C6.03624 8.69912 6.0579 8.51662 6.02582 8.33968C5.99374 8.16274 5.90938 7.99946 5.78364 7.87091L5.75091 7.83818C5.64948 7.73687 5.56902 7.61655 5.51412 7.48412C5.45922 7.35168 5.43096 7.20973 5.43096 7.06636C5.43096 6.923 5.45922 6.78104 5.51412 6.64861C5.56902 6.51618 5.64948 6.39586 5.75091 6.29455C5.85223 6.19312 5.97254 6.11265 6.10497 6.05775C6.23741 6.00285 6.37936 5.9746 6.52273 5.9746C6.66609 5.9746 6.80805 6.00285 6.94048 6.05775C7.07291 6.11265 7.19323 6.19312 7.29455 6.29455L7.32727 6.32727C7.45583 6.45302 7.6191 6.53737 7.79604 6.56946C7.97299 6.60154 8.15548 6.57988 8.32 6.50727H8.36364C8.52497 6.43813 8.66255 6.32332 8.75947 6.17698C8.85638 6.03064 8.90839 5.85916 8.90909 5.68364V5.59091C8.90909 5.30158 9.02403 5.02411 9.22861 4.81952C9.4332 4.61493 9.71067 4.5 10 4.5C10.2893 4.5 10.5668 4.61493 10.7714 4.81952C10.976 5.02411 11.0909 5.30158 11.0909 5.59091V5.64C11.0916 5.81552 11.1436 5.987 11.2405 6.13334C11.3374 6.27969 11.475 6.39449 11.6364 6.46364C11.8009 6.53624 11.9834 6.5579 12.1603 6.52582C12.3373 6.49374 12.5005 6.40938 12.6291 6.28364L12.6618 6.25091C12.7631 6.14948 12.8834 6.06902 13.0159 6.01412C13.1483 5.95922 13.2903 5.93096 13.4336 5.93096C13.577 5.93096 13.719 5.95922 13.8514 6.01412C13.9838 6.06902 14.1041 6.14948 14.2055 6.25091C14.3069 6.35223 14.3873 6.47254 14.4422 6.60497C14.4971 6.73741 14.5254 6.87936 14.5254 7.02273C14.5254 7.16609 14.4971 7.30805 14.4422 7.44048C14.3873 7.57291 14.3069 7.69323 14.2055 7.79455L14.1727 7.82727C14.047 7.95583 13.9626 8.1191 13.9305 8.29604C13.8985 8.47299 13.9201 8.65548 13.9927 8.82V8.86364C14.0619 9.02497 14.1767 9.16255 14.323 9.25947C14.4694 9.35638 14.6408 9.40839 14.8164 9.40909H14.9091C15.1984 9.40909 15.4759 9.52403 15.6805 9.72861C15.8851 9.9332 16 10.2107 16 10.5C16 10.7893 15.8851 11.0668 15.6805 11.2714C15.4759 11.476 15.1984 11.5909 14.9091 11.5909H14.86C14.6845 11.5916 14.513 11.6436 14.3667 11.7405C14.2203 11.8374 14.1055 11.975 14.0364 12.1364Z" stroke="#4A4A4A" stroke-width="1.2" stroke-linecap="round" stroke-linejoin="round"/>
</svg>
